<?xml version="1.0" encoding="UTF-8" standalone="no"?>
<!-- Created with Inkscape (http://www.inkscape.org/) -->

<svg
   xmlns:dc="http://purl.org/dc/elements/1.1/"
   xmlns:cc="http://creativecommons.org/ns#"
   xmlns:rdf="http://www.w3.org/1999/02/22-rdf-syntax-ns#"
   xmlns:svg="http://www.w3.org/2000/svg"
   xmlns="http://www.w3.org/2000/svg"
   xmlns:sodipodi="http://sodipodi.sourceforge.net/DTD/sodipodi-0.dtd"
   xmlns:inkscape="http://www.inkscape.org/namespaces/inkscape"
   version="1.1"
   width="240"
   height="240"
   viewBox="0 0 240 240"
   id="Layer_1"
   xml:space="preserve"
   inkscape:version="0.48.5 r10040"
   sodipodi:docname="contact_icon_raster_3.png"
   inkscape:export-filename="C:\Users\SPAZZRA\Documents\java\git\SquareCash4Glass\SquareCash4Glass-root\SquareCash4Glass\res\drawable\contact_icon_raster_3.png"
   inkscape:export-xdpi="90"
   inkscape:export-ydpi="90"><sodipodi:namedview
   pagecolor="#ffffff"
   bordercolor="#666666"
   borderopacity="1"
   objecttolerance="10"
   gridtolerance="10"
   guidetolerance="10"
   inkscape:pageopacity="0"
   inkscape:pageshadow="2"
   inkscape:window-width="1366"
   inkscape:window-height="706"
   id="namedview2989"
   showgrid="false"
   inkscape:zoom="1.0136719"
   inkscape:cx="256"
   inkscape:cy="256"
   inkscape:window-x="-8"
   inkscape:window-y="-8"
   inkscape:window-maximized="1"
   inkscape:current-layer="Layer_1" /><metadata
   id="metadata3001"><rdf:RDF><cc:Work
       rdf:about=""><dc:format>image/svg+xml</dc:format><dc:type
         rdf:resource="http://purl.org/dc/dcmitype/StillImage" /><dc:title></dc:title></cc:Work></rdf:RDF></metadata><defs
   id="defs2999" />
<path
   d="m 195.44346,165.15599 -14.99692,0.0492 c -16.5641,0.0543 -30.03789,-13.33138 -30.0922,-29.89548 l -0.0316,-9.63693 c 6.6084,-7.90826 11.33792,-17.25289 14.26375,-27.11932 0.30198,-1.66332 1.89599,-2.4887 2.96125,-3.63432 5.72218,-5.75984 6.81799,-15.45154 2.48985,-22.33554 -0.58925,-1.04505 -1.6467,-1.94984 -1.59237,-3.24633 -0.0288,-8.79476 -0.0137,-17.60419 -0.10107,-26.39125 C 168.07501,32.33599 165.0071,21.31054 157.54146,13.47796 151.51578,7.1488 143.25836,3.39755 134.74371,1.80672 123.987,-0.20838 112.73965,-0.06886 102.10166,2.67534 92.882436,5.03433 84.230062,10.46681 78.89634,18.49556 c -4.722284,6.97928 -6.774431,15.4439 -7.098596,23.77865 -0.102345,8.94891 0.02924,17.91861 0.02962,26.88921 0.211153,1.79333 -1.308456,3.01402 -1.991564,4.50284 -4.032535,7.37258 -2.21315,17.39169 4.321972,22.72328 1.65856,1.13715 1.973286,3.21556 2.579517,5.00759 2.870501,8.85106 7.612965,17.03 13.597186,24.14993 l 0.03266,9.95889 c 0.05432,16.5641 -13.331388,30.03788 -29.895487,30.0922 l -14.997389,0.0492 c 0,0 -27.157331,7.5876 -44.84322777,45.1383 l 0.0491787,14.99692 c 0.0271835,8.28955 6.75702017,14.97493 15.04610007,14.94774 l 209.9569,-0.68849 c 8.28955,-0.0272 14.97492,-6.75703 14.94774,-15.04611 l -0.0492,-14.99692 c -17.93181,-37.43343 -45.13832,-44.84275 -45.13832,-44.84275 z"
   id="path2995"
   style="fill:#ffffff"
   inkscape:connector-curvature="0" />
</svg>