<svg xmlns="http://www.w3.org/2000/svg" xmlns:xlink="http://www.w3.org/1999/xlink" version="1.1" id="Layer_1" x="0px" y="0px" width="100%" height="100%" viewBox="0 0 512 512" enable-background="new 0 0 512 512" xml:space="preserve" xmlns:svg="http://www.w3.org/2000/svg" preserveAspectRatio="xMidYMid meet"><rect id="svgEditorBackground" x="0" y="0" width="512" height="512" style="fill: none; stroke: none;" transform=""/>
<path d="M416,351.99798583984375h-32c-35.343994140625,0,-64,-28.656005859375,-64,-64v-20.56298828125c14.156005859375,-16.8280029296875,24.31298828125,-36.7340087890625,30.625,-57.7659912109375c0.656005859375,-3.5469970703125,4.06298828125,-5.2969970703125,6.343994140625,-7.7339935302734375c12.25,-12.25,14.656005859375,-32.9219970703125,5.468994140625,-47.64100646972656c-1.25,-2.2339935302734375,-3.5,-4.1719970703125,-3.375,-6.9380035400390625c0,-18.766006469726562,0.093994140625,-37.56300354003906,-0.031005859375,-56.31300354003906c-0.5,-22.64099884033203,-6.968994140625,-46.1879997253418,-22.843994140625,-62.952999114990234c-12.81298828125,-13.54699993133545,-30.406005859375,-21.608999252319336,-48.56298828125,-25.062999725341797c-22.93798828125,-4.375,-46.93800354003906,-4.156000137329102,-69.656005859375,1.625c-19.688003540039062,4.968999862670898,-38.18800354003906,16.5,-49.625,33.59400177001953c-10.125,14.859001159667969,-14.563003540039062,32.90599822998047,-15.313003540039062,50.68800354003906c-0.281005859375,19.09400177001953,-0.0630035400390625,38.23400115966797,-0.125,57.375c0.4380035400390625,3.8280029296875,-2.8130035400390625,6.4219970703125,-4.281005859375,9.593994140625c-8.656005859375,15.7030029296875,-4.843994140625,37.09400939941406,9.063003540039062,48.51600646972656c3.531005859375,2.4380035400390625,4.1880035400390625,6.875,5.468994140625,10.7030029296875c6.0630035400390625,18.906005859375,16.125,36.3909912109375,28.843994140625,51.625v21.25c0,35.343994140625,-28.656005859375,64,-64,64h-32.0009765625c0,0,-58,16,-96,96v32c0,17.68798828125,14.312999725341797,32,32,32h448c17.68798828125,0,32,-14.31298828125,32,-32v-32c-38,-79.9990234375,-96,-95.9990234375,-96,-95.9990234375Z" style="fill: rgb(255, 255, 255);"/>
</svg>