<?xml version="1.0" encoding="UTF-8" standalone="no"?>
<!-- Generator: Adobe Illustrator 16.0.4, SVG Export Plug-In . SVG Version: 6.00 Build 0)  -->

<svg
   xmlns:dc="http://purl.org/dc/elements/1.1/"
   xmlns:cc="http://creativecommons.org/ns#"
   xmlns:rdf="http://www.w3.org/1999/02/22-rdf-syntax-ns#"
   xmlns:svg="http://www.w3.org/2000/svg"
   xmlns="http://www.w3.org/2000/svg"
   xmlns:sodipodi="http://sodipodi.sourceforge.net/DTD/sodipodi-0.dtd"
   xmlns:inkscape="http://www.inkscape.org/namespaces/inkscape"
   version="1.1"
   id="Capa_1"
   x="0px"
   y="0px"
   width="240"
   height="232.75467"
   viewBox="0 0 240 232.75468"
   xml:space="preserve"
   inkscape:version="0.48.5 r10040"
   sodipodi:docname="email_icon.svg"
   inkscape:export-filename="C:\Users\SPAZZRA\Documents\java\git\SquareCash4Glass\SquareCash4Glass-root\SquareCash4Glass\res\drawable\email_icon_raster3.png"
   inkscape:export-xdpi="90"
   inkscape:export-ydpi="90"><metadata
   id="metadata39"><rdf:RDF><cc:Work
       rdf:about=""><dc:format>image/svg+xml</dc:format><dc:type
         rdf:resource="http://purl.org/dc/dcmitype/StillImage" /><dc:title></dc:title></cc:Work></rdf:RDF></metadata><defs
   id="defs37" /><sodipodi:namedview
   pagecolor="#ffffff"
   bordercolor="#666666"
   borderopacity="1"
   objecttolerance="10"
   gridtolerance="10"
   guidetolerance="10"
   inkscape:pageopacity="0"
   inkscape:pageshadow="2"
   inkscape:window-width="1366"
   inkscape:window-height="706"
   id="namedview35"
   showgrid="false"
   fit-margin-top="10"
   fit-margin-left="10"
   fit-margin-right="10"
   fit-margin-bottom="10"
   inkscape:zoom="1.0168207"
   inkscape:cx="-12.944887"
   inkscape:cy="-6.2391285"
   inkscape:window-x="-8"
   inkscape:window-y="-8"
   inkscape:window-maximized="1"
   inkscape:current-layer="Capa_1" />
<path
   style="fill:#ffffff"
   d="M 120.01467,10 9.9999997,92.13334 V 222.75468 H 230.00001 V 92.13334 L 120.01467,10 z M 89.581337,68.60801 c 3.226667,-5.896 7.670667,-10.34 13.317333,-13.288 5.632,-2.97734 12.056,-4.47334 19.316,-4.47334 6.13067,0 11.60134,1.20267 16.38267,3.57867 4.78133,2.40533 8.41867,5.79333 10.956,10.19333 2.508,4.41467 3.784,9.22534 3.784,14.432 0,6.21867 -1.92133,11.836 -5.74933,16.86667 -4.81067,6.336 -10.956,9.504 -18.48,9.504 -2.024,0 -3.53467,-0.33733 -4.57601,-1.056 -1.012,-0.71866 -1.716,-1.74533 -2.05333,-3.124 -2.83067,2.80134 -6.17467,4.20934 -9.92933,4.20934 -4.048,0 -7.40667,-1.408 -10.076,-4.18 -2.669336,-2.801339 -4.004003,-6.52667 -4.004003,-11.14667 0,-5.764 1.598663,-10.97067 4.825333,-15.69334 3.916,-5.764 8.90267,-8.65333 15.004,-8.65333 4.34133,0 7.55333,1.65733 9.60667,4.98667 l 0.924,-4.06267 h 9.66533 l -5.51466,26.224 c -0.352,1.672 -0.51334,2.728 -0.51334,3.212 0,0.63067 0.132,1.056 0.41067,1.37867 0.264,0.308 0.616,0.45466 0.99733,0.45466 1.188,0 2.69867,-0.68933 4.54667,-2.12666 2.49333,-1.83334 4.50267,-4.356 6.028,-7.45067 1.54,-3.124 2.31733,-6.36533 2.31733,-9.70933 0,-5.984 -2.156,-11 -6.49733,-15.06267 -4.356,-4.004 -10.428,-6.04267 -18.20134,-6.04267 -6.61466,0 -12.21733,1.34934 -16.808,4.06267 -4.59066,2.66933 -8.051996,6.48267 -10.41333,11.38133 -2.317333,4.86934 -3.476,9.97334 -3.476,15.268 0,5.13334 1.32,9.82667 3.901334,14.03601 2.610666,4.23866 6.247996,7.304 10.941336,9.25466 4.69333,1.92134 10.076,2.88934 16.11866,2.88934 5.80801,0 10.82401,-0.80667 15.03334,-2.43467 4.19467,-1.628 7.568,-4.03333 10.13467,-7.304 h 7.77333 c -2.43467,4.95733 -6.17467,8.82933 -11.20533,11.66 -5.79334,3.212 -12.848,4.81067 -21.14934,4.81067 -8.06667,0 -15.004,-1.34934 -20.856,-4.06267 -5.866666,-2.728 -10.208,-6.732 -13.082667,-12.02667 -2.845333,-5.309332 -4.253333,-11.088 -4.253333,-17.336 0,-6.84933 1.598667,-13.244 4.854667,-19.16933 z m -71.82267,26.12133 81.165337,54.428 -81.165337,62.81734 V 94.72934 z m 6.16,121.44001 96.096003,-74.36001 96.06667,74.36001 H 23.918667 z m 198.322673,-4.19467 -81.16533,-62.81734 81.16533,-54.428 V 211.97468 z M 123.97467,74.59201 c 1.29067,1.46666 1.936,3.57866 1.936,6.336 0,2.464 -0.484,5.13333 -1.42267,7.964 -0.924,2.86 -2.05333,5.04533 -3.344,6.52666 -0.88,1.04134 -1.81866,1.804 -2.74266,2.288 -1.21734,0.689338 -2.508,1.026671 -3.90134,1.026671 -1.86266,0.01467 -3.40266,-0.733331 -4.67866,-2.200001 -1.24667,-1.46667 -1.86267,-3.72533 -1.86267,-6.82 0,-2.31733 0.44,-4.98667 1.34933,-7.99333 0.90934,-3.00667 2.244,-5.29467 4.01867,-6.93734 1.78933,-1.628 3.72533,-2.43466 5.808,-2.43466 1.95067,0.0147 3.57867,0.76266 4.84,2.244 z"
   id="path3"
   inkscape:connector-curvature="0" />
<g
   id="g5"
   transform="translate(9.9999997,208.24868)">
</g>
<g
   id="g7"
   transform="translate(9.9999997,208.24868)">
</g>
<g
   id="g9"
   transform="translate(9.9999997,208.24868)">
</g>
<g
   id="g11"
   transform="translate(9.9999997,208.24868)">
</g>
<g
   id="g13"
   transform="translate(9.9999997,208.24868)">
</g>
<g
   id="g15"
   transform="translate(9.9999997,208.24868)">
</g>
<g
   id="g17"
   transform="translate(9.9999997,208.24868)">
</g>
<g
   id="g19"
   transform="translate(9.9999997,208.24868)">
</g>
<g
   id="g21"
   transform="translate(9.9999997,208.24868)">
</g>
<g
   id="g23"
   transform="translate(9.9999997,208.24868)">
</g>
<g
   id="g25"
   transform="translate(9.9999997,208.24868)">
</g>
<g
   id="g27"
   transform="translate(9.9999997,208.24868)">
</g>
<g
   id="g29"
   transform="translate(9.9999997,208.24868)">
</g>
<g
   id="g31"
   transform="translate(9.9999997,208.24868)">
</g>
<g
   id="g33"
   transform="translate(9.9999997,208.24868)">
</g>
</svg>