<?xml version="1.0" encoding="UTF-8" standalone="no"?>
<!-- Generator: Adobe Illustrator 16.0.4, SVG Export Plug-In . SVG Version: 6.00 Build 0)  -->

<svg
   xmlns:dc="http://purl.org/dc/elements/1.1/"
   xmlns:cc="http://creativecommons.org/ns#"
   xmlns:rdf="http://www.w3.org/1999/02/22-rdf-syntax-ns#"
   xmlns:svg="http://www.w3.org/2000/svg"
   xmlns="http://www.w3.org/2000/svg"
   xmlns:sodipodi="http://sodipodi.sourceforge.net/DTD/sodipodi-0.dtd"
   xmlns:inkscape="http://www.inkscape.org/namespaces/inkscape"
   version="1.1"
   id="Capa_1"
   x="0px"
   y="0px"
   width="240"
   height="278.82352"
   viewBox="0 0 240 278.82352"
   xml:space="preserve"
   inkscape:version="0.48.5 r10040"
   sodipodi:docname="text_message_icon.svg"
   inkscape:export-filename="C:\Users\SPAZZRA\Documents\java\git\SquareCash4Glass\SquareCash4Glass-root\SquareCash4Glass\res\drawable\text_message_icon_raster3.png"
   inkscape:export-xdpi="90"
   inkscape:export-ydpi="90"><metadata
   id="metadata42"><rdf:RDF><cc:Work
       rdf:about=""><dc:format>image/svg+xml</dc:format><dc:type
         rdf:resource="http://purl.org/dc/dcmitype/StillImage" /><dc:title></dc:title></cc:Work></rdf:RDF></metadata><defs
   id="defs40" /><sodipodi:namedview
   pagecolor="#ffffff"
   bordercolor="#666666"
   borderopacity="1"
   objecttolerance="10"
   gridtolerance="10"
   guidetolerance="10"
   inkscape:pageopacity="0"
   inkscape:pageshadow="2"
   inkscape:window-width="640"
   inkscape:window-height="480"
   id="namedview38"
   showgrid="false"
   fit-margin-top="10"
   fit-margin-right="10"
   fit-margin-bottom="10"
   fit-margin-left="10"
   inkscape:zoom="5.9"
   inkscape:cx="27"
   inkscape:cy="29.999998"
   inkscape:window-x="0"
   inkscape:window-y="0"
   inkscape:window-maximized="0"
   inkscape:current-layer="Capa_1" />
<g
   id="_x32_26._iPad"
   transform="matrix(6.4705882,0,0,6.4705882,10,10)"
   style="fill:#ffffff">
	<g
   id="g4"
   style="fill:#ffffff">
		<path
   d="M 30,0 H 4 C 1.79,0 0,1.79 0,4 v 32 c 0,2.209 1.79,4 4,4 h 26 c 2.209,0 4,-1.791 4,-4 V 4 C 34,1.79 32.209,0 30,0 z M 17,38 c -1.104,0 -2,-0.896 -2,-2 0,-1.104 0.896,-2 2,-2 1.104,0 2,0.896 2,2 0,1.104 -0.896,2 -2,2 z M 30,31.999 H 4 V 4 h 26 v 27.999 z"
   id="path6"
   inkscape:connector-curvature="0"
   style="fill:#ffffff" />
	</g>
</g>
<g
   id="g8"
   transform="translate(10,228.82353)">
</g>
<g
   id="g10"
   transform="translate(10,228.82353)">
</g>
<g
   id="g12"
   transform="translate(10,228.82353)">
</g>
<g
   id="g14"
   transform="translate(10,228.82353)">
</g>
<g
   id="g16"
   transform="translate(10,228.82353)">
</g>
<g
   id="g18"
   transform="translate(10,228.82353)">
</g>
<g
   id="g20"
   transform="translate(10,228.82353)">
</g>
<g
   id="g22"
   transform="translate(10,228.82353)">
</g>
<g
   id="g24"
   transform="translate(10,228.82353)">
</g>
<g
   id="g26"
   transform="translate(10,228.82353)">
</g>
<g
   id="g28"
   transform="translate(10,228.82353)">
</g>
<g
   id="g30"
   transform="translate(10,228.82353)">
</g>
<g
   id="g32"
   transform="translate(10,228.82353)">
</g>
<g
   id="g34"
   transform="translate(10,228.82353)">
</g>
<g
   id="g36"
   transform="translate(10,228.82353)">
</g>
</svg>